# xmcd
#
# Track frame offsets:
# 150
# 14428
# 36018
# 58528
# 72901
# 96141
# 112793
# 125283
# 138193
# 155491
# 169503
# 185093
# 202431
#
# Disc length: 2971 seconds
#
#
# Revision: 0
# Processed by: cddbd v1.5.2PL0 Copyright (c) Steve Scherf et al.
# Submitted via: FreeRIP 2.944 
#
DISCID=b00b990d
DTITLE=DIVERSOS - A VIDA EM NOSSAS MÃOS 
DYEAR=2007
DGENRE=Blues
TTITLE0=A terra é nossa mãe
TTITLE1=Oremos pela terra
TTITLE2=Amazonia
TTITLE3=Vamos plantar uma árvore
TTITLE4=Mera  paisagem
TTITLE5=Camada de ozônio
TTITLE6=Natureza é vida
TTITLE7=Abençoa nossa terra
TTITLE8=Guaranis
TTITLE9=Grito da terra
TTITLE10=Queimadas
TTITLE11=O homem e a natureza
TTITLE12=Elegia pela Amazonia
EXTD=
EXTT0=
EXTT1=
EXTT2=
EXTT3=
EXTT4=
EXTT5=
EXTT6=
EXTT7=
EXTT8=
EXTT9=
EXTT10=
EXTT11=
EXTT12=
PLAYORDER=
